<?xml version="1.0" encoding="utf-8"?>
<!-- Generator: Adobe Illustrator 21.1.0, SVG Export Plug-In . SVG Version: 6.00 Build 0)  -->
<svg version="1.1" id="Layer_1" xmlns="http://www.w3.org/2000/svg" xmlns:xlink="http://www.w3.org/1999/xlink" x="0px" y="0px"
	 viewBox="0 0 1369.7 254.9" style="enable-background:new 0 0 1369.7 254.9;" xml:space="preserve">
<style type="text/css">
	.st0{fill:#EAD903;}
	.st1{fill:#FFFFFF;}
</style>
<g>
	<g>
		<polygon points="113.1,48 101.1,5.5 287,5.5 241.7,82.8 		"/>
		<path class="st0" d="M277.4,11l-38.3,65.4l-43.6-11.8l0,0l-77.9-21.1L108.4,11H277.4 M296.6,0h-19.2h-169H93.8l4,14l9.2,32.5
			l1.7,6l6,1.6l77.9,21.1L236.2,87l8.1,2.2l4.3-7.2l38.3-65.4L296.6,0L296.6,0z"/>
	</g>
	<g>
		<polygon points="113.1,48 197.1,70.7 136.7,131.1 		"/>
		<path class="st0" d="M121.1,55.8l65.4,17.7l-47,47L121.1,55.8 M105.2,40.1l5.3,18.7l18.4,64.7l5.1,18l13.2-13.2l47-47l13.4-13.4
			l-18.3-5L124,45.2L105.2,40.1L105.2,40.1z"/>
	</g>
	<g>
		<polygon points="102.1,165.8 197.1,70.7 241.7,82.8 147.2,243.9 		"/>
		<path class="st0" d="M198.7,76.9l34.5,9.4L147.2,233l-38.3-66.3L198.7,76.9 M195.5,64.6l-4.5,4.5l-89.8,89.8l-6,6l4.2,7.3
			l38.3,66.3l9.5,16.4l9.6-16.3l86.1-146.8l7.3-12.4l-13.9-3.8l-34.5-9.4L195.5,64.6L195.5,64.6z"/>
	</g>
	<g>
		<polygon points="9.5,5.5 101.1,5.5 136.7,131.1 102.1,165.8 		"/>
		<path class="st0" d="M96.9,11l33.6,118.5l-27.3,27.3L19.1,11H96.9 M105.2,0h-8.3H19.1H0l9.5,16.5l84.2,145.8l7.2,12.4l10.1-10.1
			l27.3-27.3l4.6-4.6l-1.8-6.2L107.5,8L105.2,0L105.2,0z"/>
	</g>
</g>
<g>
	<path class="st1" d="M411.1,150.3h-43l-7.1,21h-29.2l42.1-114h32l42.1,114h-29.6L411.1,150.3z M403.9,129.1l-14.3-42.2l-14.5,42.2
		H403.9z"/>
	<path class="st1" d="M511.9,84.5c5.5-3.2,11.4-4.9,17.8-4.9v29.7h-8c-7.4,0-13.1,1.6-17.1,4.7c-4.1,3.1-6.1,8.4-6.1,15.9v41.3
		h-27.8V80.6h27.8v17.1C501.9,92.1,506.4,87.7,511.9,84.5z"/>
	<path class="st1" d="M604.9,147.3v23.9h-12.5c-10.6,0-18.9-2.6-24.8-7.9c-5.9-5.3-8.9-13.9-8.9-26.1V104h-12.2V80.6h12.2V58.3h27.8
		v22.3h18.2V104h-18.2v33.8c0,3.6,0.7,6.1,2.2,7.5c1.5,1.4,3.9,2.1,7.4,2.1H604.9z"/>
	<path class="st1" d="M634.6,44.6c3-2.8,7-4.1,12-4.1c5,0,9,1.4,12,4.1c3,2.8,4.5,6.3,4.5,10.5c0,4.1-1.5,7.6-4.5,10.3
		c-3,2.8-7,4.1-12,4.1c-5,0-9-1.4-12-4.1c-3-2.8-4.5-6.2-4.5-10.3C630.1,50.8,631.6,47.4,634.6,44.6z M660.4,80.6v90.6h-27.8V80.6
		H660.4z"/>
	<path class="st1" d="M736.3,68.2c-4.5,0-7.9,1-9.9,2.9c-2.1,1.9-3.2,5.1-3.4,9.4h16.4V104H723v67.3h-27.8V104h-10.9V80.6h10.9v-1
		c0-11.3,3.3-20,9.8-26.1c6.6-6.1,16.1-9.2,28.5-9.2c2.6,0,4.5,0.1,5.8,0.2v23.9L736.3,68.2z"/>
	<path class="st1" d="M816.1,84.1c5,3.1,8.7,7.4,11,12.8V80.6h27.6v90.6h-27.6v-16.4c-2.4,5.4-6.1,9.7-11,12.8
		c-5,3.1-10.9,4.7-17.9,4.7c-7.5,0-14.2-1.9-20.1-5.6c-5.9-3.7-10.6-9.1-14-16.2c-3.4-7-5.1-15.3-5.1-24.7c0-9.5,1.7-17.8,5.1-24.8
		c3.4-7,8.1-12.3,14-16.1c5.9-3.7,12.6-5.6,20.1-5.6C805.1,79.4,811.1,81,816.1,84.1z M792.7,109.6c-3.6,3.9-5.4,9.3-5.4,16.2
		c0,6.9,1.8,12.3,5.4,16.2c3.6,3.9,8.4,5.8,14.4,5.8c5.8,0,10.6-2,14.4-6c3.7-4,5.6-9.4,5.6-16.1c0-6.8-1.9-12.2-5.6-16.2
		c-3.7-4-8.5-5.9-14.4-5.9C801.2,103.8,796.4,105.7,792.7,109.6z"/>
	<path class="st1" d="M956.4,89.1c7.9,6.4,12.9,15.3,14.9,26.6H942c-0.9-3.9-2.7-6.9-5.4-9.1c-2.7-2.2-6.1-3.2-10.2-3.2
		c-4.9,0-8.9,1.9-12,5.8c-3.1,3.8-4.7,9.5-4.7,16.8c0,7.4,1.6,13,4.7,16.8c3.1,3.8,7.1,5.8,12,5.8c4.1,0,7.5-1.1,10.2-3.2
		c2.7-2.2,4.5-5.2,5.4-9.1h29.4c-2.1,11.3-7,20.1-14.9,26.6c-7.9,6.4-17.7,9.7-29.4,9.7c-8.9,0-16.8-1.9-23.6-5.6
		c-6.9-3.7-12.3-9.1-16.2-16.2c-3.9-7-5.8-15.3-5.8-24.7c0-9.5,1.9-17.8,5.8-24.8c3.8-7,9.2-12.3,16.2-16.1
		c6.9-3.7,14.8-5.6,23.7-5.6C938.7,79.4,948.5,82.7,956.4,89.1z"/>
	<path class="st1" d="M1049.3,147.3v23.9h-12.5c-10.6,0-18.9-2.6-24.8-7.9c-5.9-5.3-8.9-13.9-8.9-26.1V104H991V80.6h12.2V58.3h27.8
		v22.3h18.2V104H1031v33.8c0,3.6,0.7,6.1,2.2,7.5c1.5,1.4,3.9,2.1,7.4,2.1H1049.3z"/>
	<path class="st1" d="M1143.6,85c7.1,3.7,12.7,9.1,16.7,16.2c4.1,7,6.1,15.3,6.1,24.7c0,9.4-2,17.7-6.1,24.7
		c-4.1,7-9.6,12.4-16.7,16.2c-7.1,3.7-15.1,5.6-24.1,5.6c-9,0-17.1-1.9-24.2-5.6c-7.1-3.7-12.8-9.1-16.8-16.2
		c-4.1-7-6.1-15.3-6.1-24.7c0-9.4,2-17.7,6.1-24.7c4.1-7,9.7-12.4,16.8-16.2c7.1-3.7,15.2-5.6,24.2-5.6
		C1128.5,79.4,1136.5,81.3,1143.6,85z M1106.1,109.2c-3.6,3.8-5.4,9.4-5.4,16.7c0,7.3,1.8,12.8,5.4,16.6c3.6,3.8,8.1,5.7,13.4,5.7
		c5.3,0,9.7-1.9,13.3-5.7c3.6-3.8,5.4-9.3,5.4-16.6c0-7.3-1.8-12.8-5.4-16.7c-3.6-3.8-8-5.8-13.3-5.8
		C1114.2,103.5,1109.7,105.4,1106.1,109.2z"/>
	<path class="st1" d="M1234.3,84.5c5.5-3.2,11.4-4.9,17.8-4.9v29.7h-8c-7.4,0-13.1,1.6-17.1,4.7c-4.1,3.1-6.1,8.4-6.1,15.9v41.3
		h-27.8V80.6h27.8v17.1C1224.3,92.1,1228.8,87.7,1234.3,84.5z"/>
	<path class="st1" d="M1296.9,80.6l21.8,55.6l20.3-55.6h30.7l-56.5,133.9h-30.5l21.3-46.6l-38-87.2H1296.9z"/>
</g>
</svg>
